<?xml version="1.0" standalone="no"?>
<!DOCTYPE svg PUBLIC "-//W3C//DTD SVG 20010904//EN"
 "http://www.w3.org/TR/2001/REC-SVG-20010904/DTD/svg10.dtd">
<svg version="1.0" xmlns="http://www.w3.org/2000/svg"
 width="128.000000pt" height="128.000000pt" viewBox="0 0 128.000000 128.000000"
 preserveAspectRatio="xMidYMid meet">
<metadata>
Created by potrace 1.11, written by Peter Selinger 2001-2013
</metadata>
<g transform="translate(0.000000,128.000000) scale(0.100000,-0.100000)"
fill="#000000" stroke="none">
<path d="M581 1167 c-5 -7 -12 -109 -14 -227 -3 -118 -6 -216 -6 -218 -1 -1
-58 0 -127 4 l-127 6 7 -54 c3 -29 8 -64 10 -78 3 -14 14 -88 26 -165 11 -77
22 -152 25 -166 7 -35 14 -90 14 -112 1 -16 9 -18 73 -15 61 2 73 6 76 21 3
16 -2 18 -49 16 -59 -3 -63 2 -72 82 -7 65 -47 332 -51 345 -10 28 13 37 102
39 74 1 91 -2 94 -15 2 -8 5 -121 7 -250 1 -129 4 -243 7 -252 3 -11 0 -19 -8
-19 -7 -1 -24 -3 -38 -4 -14 -2 -53 -4 -88 -6 -63 -2 -83 -11 -60 -26 11 -7
156 -6 205 1 19 3 19 9 22 497 l1 77 107 1 c60 1 111 5 115 9 3 4 9 31 13 61
4 30 8 61 10 70 1 9 6 43 10 76 4 32 8 66 10 75 15 86 27 191 22 204 -4 10
-17 16 -34 15 -26 -2 -184 9 -245 16 -15 2 -31 -2 -37 -8z m173 -111 c43 -3
80 -7 81 -8 2 -2 -1 -30 -6 -63 -4 -33 -11 -89 -15 -125 -3 -36 -8 -72 -9 -80
-2 -8 -4 -24 -4 -36 -1 -18 -6 -20 -43 -18 -24 1 -66 3 -95 3 l-52 1 4 48 c2
26 7 99 10 162 6 109 13 133 39 125 6 -2 46 -6 90 -9z"/>
<path d="M650 512 c-5 -2 -10 -15 -10 -28 0 -23 2 -24 75 -24 l76 0 -6 -47
c-2 -27 -7 -77 -10 -113 -10 -122 -9 -120 -71 -120 -49 0 -59 -5 -51 -27 3
-12 131 -10 139 2 4 5 8 25 8 43 0 18 6 65 14 105 8 40 17 86 20 102 2 17 7
48 11 71 l7 41 -96 -1 c-53 -1 -100 -2 -106 -4z"/>
</g>
</svg>
